<svg width="960" height="640" viewBox="0 0 960 640" fill="none" xmlns="http://www.w3.org/2000/svg">
  <rect width="960" height="640" rx="24" fill="#0B1220"/>
  <rect x="48" y="56" width="864" height="96" rx="16" fill="#111A2B" stroke="#22304A"/>
  <rect x="48" y="184" width="864" height="96" rx="16" fill="#111A2B" stroke="#22304A"/>
  <rect x="48" y="312" width="864" height="96" rx="16" fill="#111A2B" stroke="#22304A"/>
  <rect x="48" y="440" width="864" height="144" rx="18" fill="#0F172A" stroke="#22304A"/>
  <circle cx="90" cy="104" r="12" fill="#38BDF8"/>
  <circle cx="90" cy="232" r="12" fill="#22C55E"/>
  <circle cx="90" cy="360" r="12" fill="#F59E0B"/>
  <rect x="120" y="90" width="300" height="28" rx="14" fill="#1F2A44"/>
  <rect x="120" y="218" width="360" height="28" rx="14" fill="#1F2A44"/>
  <rect x="120" y="346" width="420" height="28" rx="14" fill="#1F2A44"/>
  <rect x="120" y="472" width="520" height="28" rx="14" fill="#1F2A44"/>
  <rect x="120" y="512" width="420" height="24" rx="12" fill="#1F2A44"/>
  <rect x="120" y="548" width="300" height="20" rx="10" fill="#1F2A44"/>
  <text x="72" y="38" fill="#94A3B8" font-family="Arial, sans-serif" font-size="16" letter-spacing="0.3px">Today overview</text>
</svg>
